<svg xmlns="http://www.w3.org/2000/svg" clip-rule="evenodd" fill-rule="evenodd" image-rendering="optimizeQuality" shape-rendering="geometricPrecision" text-rendering="geometricPrecision" xml:space="preserve" viewBox="34.48 24.35 127.17 228.54">
 <defs>
  <style type="text/css">
   <![CDATA[
    .str0 {stroke:#1F1A17;stroke-width:0.2}
    .fil8 {fill:none}
    .fil4 {fill:#1F1A17}
    .fil9 {fill:#AAA9A9}
    .fil0 {fill:#BB825B}
    .fil6 {fill:#DA251D}
    .fil1 {fill:#E77817}
    .fil7 {fill:#EF9BA0}
    .fil2 {fill:#FFF500}
    .fil10 {fill:white}
    .fil3 {fill:#F8CFB5}
    .fil5 {fill:#FAD9C4}
   ]]>
  </style>
 </defs>
  <path class="fil0" d="m152.92 78.776c0.7681 3.5435 1.1722 7.2157 1.1722 10.978 0 29.531-24.867 53.48-55.531 53.48s-55.531-23.948-55.531-53.48c0-2.2642 0.1493-4.4948 0.4339-6.685h28.63v-40.337c7.8683-4.1174 16.884-6.4573 26.467-6.4573 8.9535 0 17.411 2.0444 24.901 5.6709v36.83h29.458z"/>
  <path class="fil1 str0" d="m78.52 150.65c3.663-1.0483 9.9315-1.5754 13.595-1.9626v14.286h14.303v-14.015c2.8024 0.4116 5.605 1.0395 8.4073 1.8933l11.42 86.153 1.759 15.779-61.362-0.0131 2.4778-17.816 9.4003-84.304z"/>
  <polygon class="fil2 str0" points="81.153 173.95 116.26 173.95 118.02 221.7 125.3 221.75 126.68 240.88 128 252.79 66.642 252.77 69.887 223.9 76.365 223.44"/>
  <polygon class="fil2 str0" points="90.293 185.17 106.21 185.17 106.07 200.74 90.432 200.73"/>
  <path class="fil3 str0" d="m120.93 232.4c-2.4239-1.2067-5.8323 0.5505-8.2089 4.0021l-0.0186-0.0101c-0.7243-0.3606-2.218 1.1677-3.3359 3.4132-1.1177 2.2452-1.4368 4.3583-0.7125 4.7189 0.3574 0.178 0.9019-0.104 1.4964-0.7052-0.0752 2.4921 0.7538 4.5399 2.4213 5.3701 2.8248 1.4063 6.9869-1.2125 9.2946-5.8479 2.3076-4.6353 1.8884-9.5348-0.9364-10.941z"/>
  <path class="fil1 str0" d="m142.92 216.59c1.5788-1.5063 2.5529-3.5683 2.5529-5.843 0-0.4907-0.0457-0.9712-0.1326-1.4387-5.1704-24.676-14.311-53.217-32.783-59.1 0.1614 6.9326 2.1185 13.762 5.0265 27.029l3.8789 13.37 5.2924 18.006-17.464 26.161c1.5729 6.2558 12.711 9.676 16.724 7.0947l16.905-25.279z"/>
  <path class="fil3" d="m135.63 99.979c3.9646 0 7.1796 3.2149 7.1796 7.1793 0 3.9646-3.215 7.1795-7.1796 7.1795-0.2378 0-0.4726-0.012-0.7045-0.0345-2.8574 14.322-14.136 25.611-28.453 28.482l-0.0559 20.191-7.1516 2e-4 -7.1514-2e-4v-20.191c-14.317-2.8707-25.595-14.159-28.453-28.482-0.2319 0.0225-0.4668 0.0345-0.7046 0.0345-3.9644 0-7.1793-3.2149-7.1793-7.1795 0-3.9644 3.2149-7.1793 7.1793-7.1793 0.2378 0 0.4725 0.012 0.7044 0.0345 1.2807-6.4192 4.2538-12.228 8.4329-16.943l-2.8659 8.7166 14.056 1.1713 4.5388-9.3704-0.2928 9.6632 14.934-1.4641-1.9033-13.177 7.3206 14.641 16.545-1.7569-6.4422-12.152 9.9561 11.567 3.6083-0.4921c1.5507 2.9812 2.7006 6.2039 3.3777 9.5973 0.2319-0.0225 0.4667-0.0345 0.7043-0.0345z"/>
  <path class="fil4 str0" d="m117.73 100.38c5.3585-0.672 10.682-1.6023 15.953-2.7768l1.0849-0.2418 0.4837 2.1699-1.085 0.2419c-2.9194 0.6506-5.8546 1.2273-8.803 1.7275 0.1505 0.3383 0.234 0.7101 0.234 1.0932v16.04c0 1.4622-1.192 2.6543-2.6542 2.6543h-18.589c-1.4646 0-2.6695-1.1974-2.6543-2.666l0.1513-14.468c0.0011-0.1092 0.0087-0.216 0.0224-0.3207-2.0849 0.0615-4.1708 0.0848-6.2566 0.0704 0.0624 0.2211 0.0959 0.456 0.0959 0.7016v14.136c0 1.462-1.1923 2.6543-2.6543 2.6543h-18.589c-1.4622 0-2.6543-1.1921-2.6543-2.6543v-16.04c0-0.191 0.0208-0.3808 0.0608-0.5659-2.5921-0.3646-5.1765-0.7831-7.7515-1.2532l-1.0934-0.1998 0.3992-2.1871 1.0937 0.1996c3.0381 0.5549 6.0895 1.0367 9.151 1.4421 0.2929-0.0863 0.6001-0.1155 0.9077-0.0842l13.999 1.4334c5.288 0.2535 10.586 0.2647 15.875 0.0248l13.273-1.1315z"/>
  <path class="fil5 str0" d="m64.328 99.784c3.1957 0.5836 6.3541 1.0776 9.4773 1.4866m14.697 1.32c5.4482 0.2622 10.787 0.2639 16.027 0.0256m13.318-1.1351c5.4638-0.6842 10.821-1.6256 16.081-2.7979m-29.419 3.9347l0.0203-0.0017 13.318-1.1351 5.0999-0.4348c0.8457-0.0721 1.5426 0.6942 1.5426 1.5426v16.04c0 0.8486-0.694 1.5426-1.5426 1.5426h-18.589c-0.8484 0-1.5515-0.694-1.5426-1.5426l0.1512-14.468c0.0089-0.8486 0.697-1.4704 1.5427-1.5426zm-30.036-1.4637l14.029 1.4364 4.5598 0.467c0.8442 0.0863 1.5426 0.6942 1.5426 1.5426v14.136c0 0.8484-0.6942 1.5426-1.5426 1.5426h-18.589c-0.8486 0-1.5426-0.694-1.5426-1.5426v-16.04c0-0.6089 0.3597-1.1825 0.8747-1.4262 0.2026-0.0959 0.4295-0.1407 0.6679-0.1164z"/>
  <path class="fil4 str0" d="m82.552 106.9c2.0212 0 3.6603 1.6391 3.6603 3.6604 0 2.0212-1.6391 3.6603-3.6603 3.6603-2.0213 0-3.6604-1.6391-3.6604-3.6603 0-2.0213 1.6391-3.6604 3.6604-3.6604z"/>
  <path class="fil4 str0" d="m113.15 106.61c2.0212 0 3.6603 1.6391 3.6603 3.6603 0 2.0213-1.6391 3.6604-3.6603 3.6604s-3.6603-1.6391-3.6603-3.6604c0-2.0212 1.6391-3.6603 3.6603-3.6603z"/>
  <path class="fil6" d="m108.88 127.46c-0.3494 4.9698-4.8638 8.9033-10.38 8.9033-5.3287 0-9.7223-3.6701-10.33-8.3989 2.1251 2.9321 5.8916 4.8824 10.184 4.8824 4.5338 0 8.481-2.1759 10.527-5.3868z"/>
  <path class="fil7" d="m99.097 133.84c1.5721 0 2.974 0.6218 3.8863 1.593-1.3587 0.5958-2.8802 0.9303-4.4871 0.9303-1.2585 0-2.4649-0.2053-3.5817-0.5802 0.887-1.169 2.429-1.9431 4.1825-1.9431z"/>
  <path class="fil8 str0" d="m96.01 121.92c0.6962-1.1367 1.6314-2.2776 2.5431-2.2034 0.8838 0.0719 1.7484 1.319 2.2052 2.7538"/>
  <path class="fil2 str0" d="m98.371 25.278c29.967 0 54.314 24.113 54.693 53.99 0.0029 0.2352 0.0045 0.4709 0.0045 0.7069 0 1.1775 0.6598 2.3452 0.5864 3.5041-36.522 2.7999-73.152 2.5492-109.87 1e-4 -0.0734-1.1589-0.1149-2.3267-0.1149-3.5042 0-30.203 24.494-54.697 54.697-54.697z"/>
  <path class="fil2 str0" d="m36.144 83.48l7.5403-4.5626 0.1405 4.5626c35.49 2.6207 72.065 2.7038 109.83 0l-0.5864-3.5042 7.5304 3.5042c1.1176 0.6096 1.4061 2.6966 0 3.1586-38.466 13.056-79.905 13.841-124.46 0-2.0079-0.3226-2.1489-2.2291 0-3.1586z"/>
  <rect class="fil2 str0" x="83.476" y="147.4" width="8.5102" height="33.437"/>
  <rect class="fil2 str0" x="106.47" y="147.6" width="8.5102" height="33.437"/>
  <rect class="fil4 str0" x="85.928" y="175.5" width="3.878" height="7.8945"/>
  <rect class="fil4 str0" x="109.06" y="175.5" width="3.878" height="7.8945"/>
  <path class="fil6 str0" d="m87.374 26.281c9.1178-2.8219 13.759-2.0484 22.069 0.119 4.508 19.577-1.2366 39.985 13.524 58.73l-46.314-0.0018c10.224-19.339 7.1474-39.232 10.721-58.848z"/>
  <path class="fil0" d="m128.32 132.91c3.9025 0 7.0673 3.0408 7.0673 6.7902s15.678 29.235 11.776 29.235-25.91-25.486-25.91-29.235 3.1648-6.7902 7.0673-6.7902z"/>
  <path class="fil0" d="m65.075 132.5c-3.9025 0-7.0673 3.0408-7.0673 6.7902s-15.678 29.235-11.776 29.235 25.91-25.486 25.91-29.235-3.1648-6.7902-7.0673-6.7902z"/>
  <rect class="fil9 str0" x="85.183" y="178.52" width="5.536" height=".9283"/>
  <rect class="fil9 str0" x="108.23" y="178.98" width="5.536" height=".9283"/>
  <polygon class="fil2 str0" points="107.39 233.65 125.28 242.25 125.19 252.78 106.41 252.77"/>
  <polygon class="fil2 str0" points="88.975 233.54 71.083 242.14 71.176 252.67 89.952 252.66"/>
  <path class="fil10 str0" d="m86.8 251.92l28.579-35.907 4.8176 30.659-33.396 5.2476zm11.157-6.4221l14.006-17.598 2.3611 15.026-16.368 2.5719z"/>
  <path class="fil3 str0" d="m102 227.44c1.1971-2.4286 4.9734-3.0959 8.9554-1.7899l0.0086-0.0193c0.3577-0.7257 2.4721-0.4149 4.7219 0.6941 2.2496 1.1089 3.7838 2.5967 3.4261 3.3224-0.1766 0.3581-0.7806 0.4637-1.6178 0.3456 1.5698 1.937 2.1511 4.0685 1.3275 5.7392-1.3952 2.8303-6.2931 3.2688-10.937 0.9794-4.6444-2.2894-7.2795-6.4412-5.8843-9.2715z"/>
  <path class="fil1 str0" d="m70.966 222.92c-2.1141-0.5301-3.973-1.8261-5.0867-3.7719-0.2403-0.4197-0.4357-0.8526-0.5888-1.2944-10.343-24.905-5.0585-46.258-0.3958-55.1 2.202-6.2143 9.2151-17.311 16.231-10.28 2.5392 2.5448-3.1441 18.677-3.697 25.407l-0.475 12.507 4.2013 17.945 28.036 13.99c1.6914 6.1067-6.3458 14.382-11.108 14.101l-27.117-13.504z"/>
</svg>